<?xml version="1.0" encoding="UTF-8"?><svg id="uuid-839fb1d9-ef3f-4956-85e3-a59a1c6fbd9f" xmlns="http://www.w3.org/2000/svg" viewBox="0 0 371.91 409.59"><defs><style>.uuid-34d00793-0315-44d9-af2d-2b819b7565ce{fill:#fff;stroke-width:0px;}</style></defs><g id="uuid-1ce22b56-9a7e-401e-8b75-135a665a723e"><path id="uuid-dce1732e-ceb6-4375-9877-e9e2fa3f3f4e" class="uuid-34d00793-0315-44d9-af2d-2b819b7565ce" d="m113.83,409.59c14.57,0,18.54-5.74,18.54-12.82,0-6.33-.23-23.11-.34-45.33-75.47,16.08-91.39-35.77-91.39-35.77-12.34-30.77-30.19-39-30.19-39-24.58-16.53,1.9-16.19,1.9-16.19,27.25,1.85,41.56,27.47,41.56,27.47,24.19,40.77,63.51,28.99,79.03,22.18,2.44-17.25,9.43-28.99,17.18-35.66-60.26-6.67-123.59-29.6-123.59-131.75,0-29.1,10.52-52.88,27.92-71.54-3.05-6.74-12.21-33.85,2.38-70.57,0,0,22.72-7.15,74.61,27.34,21.71-5.92,44.77-8.86,67.83-9,23.07.13,46.13,3.08,67.83,9C318.66-6.53,341.39.61,341.39.61c14.58,36.72,5.43,63.83,2.71,70.57,17.3,18.65,27.81,42.44,27.81,71.54,0,102.43-63.42,124.97-123.8,131.53,9.5,8,18.31,24.35,18.31,49.34,0,35.68-.34,64.35-.34,73.01,0,6.99,3.02,12.66,18.65,12.66l-170.92.33Z"/></g></svg>