<svg id="Layer_1" enable-background="new 0 0 60 60" viewBox="0 0 60 60" xmlns="http://www.w3.org/2000/svg"><path d="m9 8h-3v2h2v28h-2v2h3 5v10h-3v2h8v-2h-3v-10h28v10h-3v2h8v-2h-3v-10h5 3v-2h-2v-28h2v-2h-3zm41 30h-40v-28h40z"/><path d="m13 24h14c.55 0 1-.45 1-1v-10c0-.55-.45-1-1-1h-14c-.55 0-1 .45-1 1v10c0 .55.45 1 1 1zm1-10h12v8h-12z"/><path d="m30 13h18v2h-18z"/><path d="m30 17h18v2h-18z"/><path d="m30 23h18v2h-18z"/><path d="m31 36h16c.55 0 1-.45 1-1v-6c0-.55-.45-1-1-1h-16c-.55 0-1 .45-1 1v6c0 .55.45 1 1 1zm1-6h14v4h-14z"/><path d="m12 28h16v2h-16z"/><path d="m12 32h16v2h-16z"/></svg>