<?xml version="1.0" encoding="UTF-8"?><svg id="uuid-9628d476-757f-491f-a925-7db807c613b6" xmlns="http://www.w3.org/2000/svg" viewBox="0 0 512 512"><defs><style>.uuid-2d3c99f4-b827-4e7f-bc2e-c4f42bf263c1{fill:#fff;stroke-width:0px;}</style></defs><path class="uuid-2d3c99f4-b827-4e7f-bc2e-c4f42bf263c1" d="m511.87,512v-.02h.13v-187.78c0-91.86-19.78-162.62-127.17-162.62-51.63,0-86.27,28.33-100.42,55.19h-1.49v-46.61h-101.82v341.82h106.03v-169.26c0-44.57,8.45-87.66,63.64-87.66s55.19,50.86,55.19,90.52v166.42h105.92Z"/><path class="uuid-2d3c99f4-b827-4e7f-bc2e-c4f42bf263c1" d="m8.45,170.18h106.15v341.82H8.45V170.18Z"/><path class="uuid-2d3c99f4-b827-4e7f-bc2e-c4f42bf263c1" d="m61.48,0C27.54,0,0,27.54,0,61.48s27.54,62.06,61.48,62.06,61.48-28.12,61.48-62.06c-.02-33.94-27.56-61.48-61.48-61.48Z"/></svg>