<?xml version="1.0" encoding="UTF-8"?>
<svg id="uuid-b2f33d5c-e294-4c05-af72-87d660802438"
    xmlns="http://www.w3.org/2000/svg" viewBox="0 0 316.46 200">
    <defs>
        <style>
            .uuid-a6829efd-d52f-437c-b64a-c4024114fefb {
                stroke-width: 0px;
                fill: #fff;
            }
        </style>
    </defs>
    <path class="uuid-a6829efd-d52f-437c-b64a-c4024114fefb"
        d="m50.62.11h6.89c56.82,0,113.64.07,170.46-.11,5.53-.02,8.22,1.75,10.28,6.94,8.15,20.52,14.88,41.38,17.84,63.33.49,3.63.95,7.27,1.06,10.92.04,1.27-.67,3.15-1.65,3.77-3.03,1.9-6.36,3.31-10.34,5.3-.63-4.3-1.28-7.65-1.58-11.04-1.68-18.41-6.62-35.97-13.25-53.15-1.7-4.41-4.24-6.03-8.99-5.96-19.99.28-39.99.11-59.99.3-20.48.2-40.96.62-61.44.97-1.42.02-2.84.28-5.05.51,25.19,46.22,34.41,94.38,24.19,145.98-9.99-3.41-13.77-8.26-13.63-17.09.86-54.57-16.98-102.58-50.75-145.04-1.11-1.4-2.09-2.89-4.06-5.62Z" />
    <path class="uuid-a6829efd-d52f-437c-b64a-c4024114fefb"
        d="m60.41,134.57c8.36,7.01,16.61,14.17,25.12,20.99,9.73,7.81,19.75,15.26,29.55,22.99,3.49,2.75,6.34,2.33,9.78-.27,15.54-11.74,30.7-24.11,47-34.69,18.97-12.31,38.62-23.69,58.65-34.18,22.54-11.8,45.79-22.27,68.85-33.07,5.23-2.45,10.92-3.89,17.09-4.78-1.17.83-2.3,1.73-3.52,2.49-24.33,15.1-49.03,29.63-72.92,45.39-32.89,21.7-63.07,46.87-89.84,75.87-9.35,10.13-17.72,21.18-26.55,31.79-1.01,1.21-2.16,2.31-3.86,4.12-20.4-32.37-40.37-64.07-60.35-95.77.33-.29.66-.58,1-.88Z" />
    <path class="uuid-a6829efd-d52f-437c-b64a-c4024114fefb"
        d="m99.4,154.65c-1.14-2.22-2.8-4.32-3.35-6.68-4-17.11-10.01-33.5-17.84-49.18-13.07-26.13-30.27-49.29-51.29-69.58-1.54-1.48-3.61-2.41-5.43-3.6.4-.63.8-1.26,1.21-1.89,1.17-.22,2.34-.61,3.51-.63,6.16-.06,12.34.27,18.47-.13,4.58-.3,7.48,1.59,10.07,5.03,25.65,34.16,41.79,72.1,46.01,114.83.36,3.68.64,7.36.95,11.04-.77.27-1.54.53-2.31.8Z" />
    <path class="uuid-a6829efd-d52f-437c-b64a-c4024114fefb"
        d="m90.45,145.35c-13.88-16.78-26.88-34.41-41.88-50.11-15.09-15.79-32.18-29.67-48.57-44.55.97-.13,2.34-.47,3.71-.49,5.5-.06,11.04.42,16.48-.14,6.7-.7,11.24,2.02,15.59,6.78,17.39,19.01,32.93,39.33,44.62,62.36,4.19,8.24,7.58,16.88,11.34,25.34-.43.27-.86.54-1.3.8Z" />
</svg>