<svg id="Layer_1" height="512" viewBox="0 0 512 512" width="512" xmlns="http://www.w3.org/2000/svg" data-name="Layer 1"><path d="m444.572 71.03-9.741.547a237.1 237.1 0 0 0 -163.321 78.828l-2.382 2.679 3.765 250.634 14.528-11.009a264.883 264.883 0 0 1 148.358-53.7l8.793-.41zm-367.392.547-9.741-.547v267.57l8.792.41a265.251 265.251 0 0 1 151.528 56.11l15.189 11.868-3.858-258.188-2.42-2.6a237.252 237.252 0 0 0 -159.49-74.623zm-77.18 47.586h37.452v234.8a14.965 14.965 0 0 0 15.68 14.976 237.65 237.65 0 0 1 163.429 55.761l19.279 16.269h-235.84zm512 321.806h-235.829l19.269-16.269a237.74 237.74 0 0 1 163.443-55.761 15.111 15.111 0 0 0 11.039-4.127 14.956 14.956 0 0 0 4.622-10.849v-234.8h37.456z" fill="#f7ba00" fill-rule="evenodd"/></svg>