<?xml version="1.0" encoding="UTF-8"?><svg id="uuid-7085ef4b-1053-40f4-a9b7-c49532fd37fd" xmlns="http://www.w3.org/2000/svg" viewBox="0 0 139 139.6"><defs><style>.uuid-30cfa3a1-eeff-466d-b9c5-1f0c0509f8f4{fill:#fff;stroke-width:0px;}</style></defs><path class="uuid-30cfa3a1-eeff-466d-b9c5-1f0c0509f8f4" d="m17.8,139.5H2.4V32.4h15.4v107.1Z"/><path class="uuid-30cfa3a1-eeff-466d-b9c5-1f0c0509f8f4" d="m40.4,32.4h41.6c39.6,0,57,28.3,57,53.6,0,27.5-21.5,53.6-56.8,53.6h-41.8s0-107.2,0-107.2Zm15.4,93.3h24.5c34.9,0,42.9-26.5,42.9-39.7,0-21.5-13.7-39.7-43.7-39.7h-23.7v79.4h0Z"/><path class="uuid-30cfa3a1-eeff-466d-b9c5-1f0c0509f8f4" d="m20.2,10.1c0,5.5-4.5,10.1-10.1,10.1S0,15.6,0,10.1,4.5,0,10.1,0c5.6,0,10.1,4.6,10.1,10.1Z"/></svg>