<?xml version="1.0" encoding="UTF-8"?><svg id="uuid-e8eadaec-d6d0-47fb-8ce3-0682411e0de6" xmlns="http://www.w3.org/2000/svg" viewBox="0 0 512 416"><defs><style>.uuid-c0490880-6c8c-4f10-99cb-f984f3aedc10{fill:#fff;stroke-width:0px;}</style></defs><path class="uuid-c0490880-6c8c-4f10-99cb-f984f3aedc10" d="m512,49.25c-19.04,8.35-39.33,13.89-60.48,16.58,21.76-12.99,38.37-33.41,46.18-58.02-20.29,12.1-42.69,20.64-66.56,25.41C411.87,12.7,384.42,0,354.46,0c-58.11,0-104.9,47.17-104.9,104.99,0,8.32.7,16.32,2.43,23.94-87.26-4.26-164.48-46.08-216.35-109.79-9.06,15.71-14.37,33.7-14.37,53.06,0,36.35,18.72,68.58,46.62,87.23-16.86-.32-33.41-5.22-47.42-12.93v1.15c0,51.01,36.38,93.38,84.1,103.14-8.54,2.34-17.86,3.46-27.52,3.46-6.72,0-13.5-.38-19.87-1.79,13.6,41.57,52.19,72.13,98.08,73.12-35.71,27.94-81.06,44.77-130.14,44.77-8.61,0-16.86-.38-25.12-1.44,46.5,29.98,101.6,47.1,161.02,47.1,193.15,0,298.75-160,298.75-298.69,0-4.64-.16-9.12-.38-13.57,20.83-14.78,38.34-33.25,52.61-54.5Z"/></svg>