<?xml version="1.0" encoding="UTF-8"?><svg id="uuid-67901b96-69fd-4297-a15f-b0dc57a386e1" xmlns="http://www.w3.org/2000/svg" viewBox="0 0 290.51 319.7"><defs><style>.uuid-d2c31bd5-2dde-4ba3-a525-901e4f628dfc{fill:#fff;stroke-width:0px;}</style></defs><path class="uuid-d2c31bd5-2dde-4ba3-a525-901e4f628dfc" d="m90.04,66.65c-22.15,62.3-22.35,124.21.02,186.52-19.07,2.82-37.7,4.84-56.56,3.61-5.64-.37-11.29-.79-16.88-1.61-1.47-.22-3.62-1.8-3.91-3.1-3.3-14.55-6.78-29.09-9.27-43.8C-.1,187.35-.43,166.18.34,145.01c.95-26.18,5.4-51.83,12.32-77.05.36-1.32,2.21-2.93,3.58-3.17,4.91-.84,9.89-1.42,14.87-1.59,19.48-.68,38.9-.22,58.92,3.45Z"/><path class="uuid-d2c31bd5-2dde-4ba3-a525-901e4f628dfc" d="m91.43,253.69c64.35-12.03,117.35-42.92,159.99-92.62,1.12,1.06,2.28,1.92,3.14,3.01,14.04,17.86,26,36.98,35.25,57.77,1.19,2.67.92,4.27-1.17,6.37-44.26,44.49-96.49,75.13-157.29,91.01-2.47.65-4.13,1.02-5.93-1.49-13.73-19.15-25-39.61-33.48-61.6-.23-.59-.27-1.26-.51-2.45Z"/><path class="uuid-d2c31bd5-2dde-4ba3-a525-901e4f628dfc" d="m251.65,158.83c-42.46-49.66-95.7-80.76-160.65-92.92,2.59-6.18,4.48-12.21,7.5-17.6,8.59-15.33,17.69-30.38,26.47-45.61,1.65-2.87,3.6-3.07,6.5-2.3,52.54,14.04,99.38,38.72,140,74.98,6.08,5.43,11.9,11.15,17.58,16.99,1.03,1.05,1.63,3.67,1.06,4.96-9.67,21.85-22.02,42.07-37.22,60.53-.29.35-.72.58-1.23.98Z"/></svg>