<svg id="Gylph" height="512" viewBox="0 0 64 64" width="512" xmlns="http://www.w3.org/2000/svg"><path d="m58.99 21.63-26.28-11.11a1.626 1.626 0 0 0 -1.28 0l-26.41 11.07a1.67994 1.67994 0 0 0 -.00987 3.07c1.561.66883 10.69776 4.50238 11.97974 5.05994l14.44013 6.09006a1.69365 1.69365 0 0 0 1.28-.01c4.63922-1.95758 16.614-7.01947 21.07-8.91-.01086 1.23792.00781 11.67634 0 13.19-1.98621.501-2.79273 3.887-1.67993 5.72l-1.47007 6.6a.97647.97647 0 0 0 .43 1.05.98884.98884 0 0 0 1.14-.04 4.3 4.3 0 0 1 2.45-.84 4.24 4.24 0 0 1 2.61.85 1.01086 1.01086 0 0 0 1.56-1.0801l-1.87-6.5699c.9624-1.64978.439-4.61286-1.1701-5.43988.0091-1.52678-.00634-13.07859.0001-14.28012l3.21-1.36a1.67561 1.67561 0 0 0 0-3.06z"/><path d="m30.65 37.65c-1.20434-.50817-14.918-6.30426-15.66-6.61v9.74a3.22977 3.22977 0 0 0 1.43 2.64 27.86778 27.86778 0 0 0 14.87 4.81 28.55143 28.55143 0 0 0 16.39-4.78009 3.264 3.264 0 0 0 1.47-2.67991v-9.74c-.6936.301-14.48321 6.12237-15.66 6.62a3.72691 3.72691 0 0 1 -2.84 0z"/></svg>