<?xml version="1.0" encoding="UTF-8"?><svg id="uuid-3c1fa3d1-5115-4b00-8372-38a6f56b1ef3" xmlns="http://www.w3.org/2000/svg" viewBox="0 0 550 550"><defs><style>.uuid-c57203b0-7f49-4541-9ff1-c5aff3c8c743{fill:#fff;stroke-width:0px;}</style></defs><path class="uuid-c57203b0-7f49-4541-9ff1-c5aff3c8c743" d="m0,0v550h550V0H0Zm50,50h450v450H50V50Zm304.1,75.05c-32.08,0-43.07,22.93-43.07,38.33v40.87c0,20.75,11.3,40.58,40.53,40.58,49.05-.05,43.12-37.16,43.12-62.94h-38.33v13.53h22.61c0,20.12-9.42,33.64-27.34,33.64-14.15,0-22.31-12.27-22.31-29.25v-33.94c0-15.72,14.75-24.8,24.8-24.8,17.92,0,24.8,15.72,24.8,15.72l13.53-9.13s-6.58-22.61-38.33-22.61Zm-139.5,77.25c-22.63,0-57.18,2.18-89.55.93v10.06c19.5,3.78,27.64,1.88,27.64,30.18v138.28c0,28.6-8.16,26.4-27.64,30.18v10.4c9.42-.33,25.73-1.27,42.38-1.27,15.73,0,36.17.64,44.97,1.27v-10.4c-25.15-3.45-32.71-.63-32.71-30.18v-58.45c8.5.62,15.75.59,27.05.59,21.37,38.35,41.79,66.99,53.42,80.52,21.05,25.45,54.72,21.69,62.89,17.92v-9.42c-12.58-.02-25.18-8.5-34.28-18.55-15.4-16.65-36.15-43.69-53.12-74.17,28.3-6.93,49.37-33.63,49.37-60.06,0-39.6-30.51-57.81-70.41-57.81Zm-6.59,15.97c29.55,0,47.12,15.4,47.12,43.7-.03,27.7-18.87,46.19-50.29,46.19-11.63,0-16.97-.3-25.15-.93v-88.04c8.17-.95,18.87-.93,28.32-.93Z"/></svg>